PathFileType	4	(X/Y/Z)	C:/Users/opensim2020/Desktop/walking_exp_matlab/subject03_walking11_straight_01.trc	
DataRate	CameraRate	NumFrames	NumMarkers	Units	OrigDataRate	OrigDataStartFrame	OrigNumFrames	
100.00	100.00	8	46	mm	100.00	690	454	
Frame#	Time	LFHD			RFHD			LBHD			RBHD			C7			T10			CLAV			STRN			RBAK			LSHO			LUPA			LELB			LFRM			LWRA			LWRB			LFIN			RSHO			RUPA			RELB			RFRM			RWRA			RWRB			RFIN			LASI			RASI			LPSI			RPSI			LTHI			LKNE			LTIB			LANK			LHEE			LTOE			RTHI			RKNE			RTIB			RANK			RHEE			RTOE			*39			*40			*41			*42			*43			*44			*45			
		X1	Y1	Z1	X2	Y2	Z2	X3	Y3	Z3	X4	Y4	Z4	X5	Y5	Z5	X6	Y6	Z6	X7	Y7	Z7	X8	Y8	Z8	X9	Y9	Z9	X10	Y10	Z10	X11	Y11	Z11	X12	Y12	Z12	X13	Y13	Z13	X14	Y14	Z14	X15	Y15	Z15	X16	Y16	Z16	X17	Y17	Z17	X18	Y18	Z18	X19	Y19	Z19	X20	Y20	Z20	X21	Y21	Z21	X22	Y22	Z22	X23	Y23	Z23	X24	Y24	Z24	X25	Y25	Z25	X26	Y26	Z26	X27	Y27	Z27	X28	Y28	Z28	X29	Y29	Z29	X30	Y30	Z30	X31	Y31	Z31	X32	Y32	Z32	X33	Y33	Z33	X34	Y34	Z34	X35	Y35	Z35	X36	Y36	Z36	X37	Y37	Z37	X38	Y38	Z38	X39	Y39	Z39	X40	Y40	Z40	X41	Y41	Z41	X42	Y42	Z42	X43	Y43	Z43	X44	Y44	Z44	X45	Y45	Z45	X46	Y46	Z46	

57	0.560	1434.09180	-1091.61853	1632.44250	1566.55188	-1086.41333	1630.79797	1441.14001	-1218.87085	1584.61230	1571.95813	-1208.60828	1582.64417	1491.48779	-1241.25366	1426.30347	1469.40295	-1285.42041	1117.17175	1482.01697	-1120.64417	1347.35547	1463.26123	-1081.76526	1181.61011	1577.13623	-1295.46301	1246.55969	1331.38464	-1169.01794	1396.67834	1248.50708	-1174.66602	1205.35437	1228.95789	-1159.36255	1084.32727	1223.49036	-1107.86047	965.30206	1251.23779	-1060.50513	855.62231	1202.48108	-1087.64807	854.98877	1208.73706	-1050.19812	779.46143	1643.89380	-1160.98792	1360.57312	1706.52307	-1135.74487	1138.41125	1711.57898	-1101.87866	1029.84021	1702.90039	-1063.79565	898.68671	1655.76074	-1026.35950	810.51978	1705.37524	-1045.94141	800.48364	1686.80505	-1013.39886	735.28558	1343.15698	-1137.21289	946.19824	1578.81604	-1127.58228	945.00714	1395.86426	-1296.55920	973.08978	1544.52014	-1287.97412	987.26031	1281.52161	-1160.51367	646.28595	1296.16370	-1119.82849	470.64984	1301.93713	-1241.14978	314.03549	1345.25977	-1350.83704	138.07224	1388.16174	-1400.62085	118.89972	1346.16064	-1232.59644	53.77332	1617.29846	-1196.73413	656.44116	1582.20752	-1187.93054	476.47202	1581.84973	-1232.57141	291.88275	1531.30945	-1244.73157	73.69244	1479.16370	-1284.42908	39.91576	1505.82727	-1100.07996	39.31089																					 
58	0.570	1433.92932	-1087.61084	1632.68896	1566.37878	-1082.09180	1631.04883	1441.21655	-1214.74524	1584.83887	1571.94690	-1204.26636	1582.91724	1491.85791	-1237.13477	1426.51050	1470.61499	-1281.41907	1117.32666	1482.10352	-1116.66077	1347.58813	1463.42273	-1077.85095	1181.69885	1578.04004	-1291.00195	1246.86023	1331.52856	-1165.65735	1396.65271	1248.61719	-1172.36182	1205.32043	1228.80139	-1157.83557	1084.23694	1222.93115	-1106.66028	965.17651	1250.32434	-1059.32690	855.33569	1201.79688	-1086.87183	854.78552	1207.78870	-1049.42029	779.21265	1644.03589	-1156.46875	1361.13379	1706.94348	-1130.31946	1139.01953	1712.04846	-1096.03271	1030.66968	1703.58154	-1057.31580	899.91705	1656.29187	-1019.09015	811.70483	1705.88623	-1038.81433	801.63293	1687.58032	-1005.79596	736.56781	1343.72998	-1133.56555	946.67267	1578.99463	-1124.53345	944.76416	1396.73621	-1292.76233	973.42169	1545.50928	-1283.68335	987.27368	1281.74121	-1153.83752	647.42352	1296.69800	-1111.02295	472.20804	1301.81763	-1228.95068	312.86719	1344.57251	-1334.88477	134.41817	1387.19897	-1384.37878	113.97495	1346.42871	-1214.43750	53.40839	1617.29346	-1193.12000	656.26892	1582.12891	-1185.39758	476.30255	1582.00513	-1231.35339	292.03940	1531.18408	-1244.50586	73.79195	1479.24951	-1284.63220	40.52269	1505.59546	-1099.99902	39.10885																					 
59	0.580	1433.65649	-1083.55066	1632.88281	1566.06152	-1077.66406	1631.21118	1441.22791	-1210.73083	1585.00439	1571.89978	-1199.95300	1583.09985	1492.20166	-1232.99780	1426.69958	1471.79480	-1277.34949	1117.49438	1481.99719	-1112.59558	1347.64661	1463.43542	-1073.88074	1181.82544	1578.93665	-1286.46777	1247.13196	1331.66943	-1162.22498	1396.55652	1248.74121	-1170.04712	1205.26648	1228.54980	-1156.28308	1084.11768	1222.42834	-1105.44897	964.93439	1249.40454	-1058.10156	855.04919	1201.12012	-1086.13306	854.49304	1206.88037	-1048.80347	778.76025	1644.17969	-1151.79846	1361.65015	1707.26721	-1125.36011	1139.63672	1712.53784	-1090.31726	1031.42163	1703.85986	-1050.72156	900.69965	1657.18665	-1012.17053	813.19019	1706.39124	-1031.93982	802.74182	1688.19934	-998.33441	737.74463	1343.98145	-1130.36292	946.79425	1579.35083	-1119.46802	944.59814	1397.67749	-1289.02783	973.68671	1546.45215	-1279.37476	987.20160	1281.90649	-1147.11523	648.49365	1297.27026	-1102.44287	473.80789	1301.74390	-1216.76929	311.79904	1344.04126	-1318.35889	130.62010	1386.41357	-1367.54053	108.85111	1346.52881	-1195.39355	53.12296	1617.34644	-1189.65479	656.06226	1582.10815	-1183.01367	476.09869	1581.77722	-1229.59827	291.89893	1531.03149	-1244.28088	73.95544	1479.25903	-1284.57898	40.77869	1505.44238	-1099.84863	38.90577																					 
60	0.590	1433.31726	-1079.55774	1632.92505	1565.83484	-1073.52869	1631.39368	1441.11877	-1206.58716	1585.09363	1571.80872	-1195.58386	1583.22803	1492.50732	-1228.79370	1426.85071	1473.01196	-1273.24353	1117.57007	1481.95239	-1108.55347	1347.71460	1463.37964	-1069.81970	1181.89563	1579.92065	-1281.79333	1247.43103	1331.67102	-1158.76379	1396.36035	1248.90271	-1167.58240	1205.09033	1228.46411	-1154.64587	1083.93530	1221.96045	-1104.30762	964.57385	1248.59058	-1057.06262	854.55719	1200.53259	-1085.40930	854.03735	1206.10315	-1048.28540	778.24207	1644.32043	-1146.68896	1362.06604	1707.63318	-1120.16357	1140.26306	1712.96375	-1084.64478	1032.15491	1704.49109	-1044.47522	901.81476	1657.58093	-1005.42084	814.18805	1706.67468	-1025.14819	803.72540	1688.89124	-991.18384	739.12390	1344.35718	-1126.69299	947.30701	1579.60352	-1114.51453	944.44397	1398.58069	-1285.26636	973.94165	1547.41309	-1274.97192	987.14960	1281.84644	-1140.39978	649.66766	1297.82043	-1093.97900	475.41238	1301.81372	-1204.65967	310.73257	1343.85950	-1300.84692	125.94748	1385.92188	-1350.21619	103.71719	1346.48804	-1176.30530	52.61481	1617.38232	-1186.21521	655.84753	1582.07056	-1180.65527	475.88666	1581.71033	-1228.11072	291.85779	1530.84741	-1243.93274	73.99019	1479.24988	-1284.53162	41.08005	1505.30261	-1099.65479	38.72893																					 
61	0.600	1432.93494	-1075.33704	1632.99353	1565.36646	-1069.15796	1631.61829	1440.93799	-1202.40564	1585.06274	1571.63354	-1191.26416	1583.31702	1492.77075	-1224.55237	1426.99158	1474.14050	-1269.13818	1117.67957	1481.71069	-1104.38000	1347.79114	1463.33008	-1066.02905	1181.82727	1580.89111	-1277.15466	1247.74792	1331.73755	-1155.44775	1396.16882	1248.95618	-1165.26111	1204.79504	1228.44482	-1152.91516	1083.69275	1221.48193	-1103.07495	964.10236	1247.78772	-1056.01294	854.03723	1199.99780	-1084.81555	853.52625	1205.34583	-1047.83875	777.53174	1644.26563	-1141.91357	1362.59631	1707.83411	-1115.15833	1140.85864	1713.37988	-1079.15698	1032.84155	1705.23694	-1037.67603	902.40173	1657.97205	-998.44073	815.48175	1706.89148	-1018.59003	804.75861	1689.14099	-984.34576	740.29846	1344.57373	-1123.13416	947.71973	1579.79236	-1109.86023	944.20258	1399.39978	-1281.52625	974.12622	1548.27368	-1270.63806	987.04681	1281.95361	-1133.75439	650.68719	1298.35046	-1085.68628	476.98026	1302.02979	-1192.60095	309.63422	1343.36670	-1284.14807	122.76092	1385.60120	-1332.29224	98.46174	1346.16003	-1156.92676	52.06722	1617.31238	-1182.79846	655.67853	1581.92712	-1178.31970	475.72040	1581.58704	-1226.63586	291.81647	1530.71655	-1243.71265	74.13621	1479.16321	-1284.43359	41.25746	1505.12976	-1099.48718	38.52688																					 
62	0.610	1432.45618	-1071.19531	1633.01013	1564.87439	-1064.88928	1631.70068	1440.65540	-1198.21313	1584.98450	1571.32727	-1186.90039	1583.37183	1492.98193	-1220.31250	1427.10938	1475.20923	-1264.99573	1117.72241	1481.49841	-1100.25574	1347.80420	1463.23022	-1061.96069	1181.61060	1581.89465	-1272.42883	1248.06580	1331.64331	-1152.08191	1395.85706	1249.20398	-1162.64014	1204.54443	1228.42566	-1151.22986	1083.33215	1221.15051	-1101.95361	963.59979	1247.05139	-1055.06152	853.33893	1199.43604	-1084.24963	852.90967	1204.66589	-1047.55579	776.74731	1644.28064	-1136.57886	1362.94385	1707.85522	-1109.59521	1141.05371	1713.70959	-1073.70032	1033.46582	1705.49390	-1031.58948	903.22229	1658.16370	-991.83557	816.59247	1707.04138	-1012.16479	805.62976	1689.63525	-977.26678	741.73969	1344.86890	-1119.38989	948.18738	1579.88171	-1105.39429	943.97375	1400.28210	-1277.73694	974.43555	1549.08569	-1266.31494	986.94659	1281.85046	-1127.23792	651.75543	1298.87439	-1077.68054	478.52200	1302.23608	-1180.55420	308.60272	1343.29004	-1266.50842	118.85455	1385.49146	-1313.78442	93.18583	1345.75537	-1137.20068	51.70151	1617.27527	-1179.45093	655.42792	1581.81641	-1176.05347	475.47250	1581.53601	-1225.32446	291.87549	1530.61279	-1243.54236	74.28560	1479.11584	-1284.38477	41.46208	1505.01465	-1099.35242	38.37661																					 
63	0.620	1431.96460	-1066.98767	1633.08374	1564.43054	-1060.55310	1631.87903	1440.32715	-1193.98962	1584.93738	1570.97754	-1182.50671	1583.34021	1493.17529	-1215.93140	1427.14343	1476.23083	-1260.82739	1117.75623	1481.17078	-1096.06775	1347.76331	1463.10999	-1057.99524	1181.47253	1582.88318	-1267.63013	1248.38574	1331.53821	-1148.68506	1395.57251	1249.34229	-1160.21362	1204.20947	1228.44495	-1149.38635	1082.95288	1220.79785	-1100.81653	963.00873	1246.36902	-1054.12842	852.55731	1198.97034	-1083.72498	852.21442	1204.00085	-1047.39722	775.85297	1644.07251	-1131.55823	1363.33252	1708.15637	-1104.45801	1141.67102	1713.97705	-1068.24170	1034.00623	1705.52930	-1025.57239	903.79163	1658.23779	-985.36603	817.61511	1706.94324	-1005.73718	806.42236	1689.45654	-970.60742	742.68292	1345.04688	-1115.64941	948.64581	1579.94080	-1100.95581	943.70483	1400.87256	-1273.85645	974.36328	1549.79761	-1261.90698	986.77612	1281.74878	-1120.82629	652.77820	1299.45471	-1069.86780	480.01022	1302.58215	-1168.55359	307.49902	1343.33167	-1248.50342	115.02513	1385.68616	-1294.83337	87.95788	1345.22437	-1117.18689	51.21458	1617.22595	-1176.04553	655.21405	1581.69336	-1173.72949	475.26141	1581.54175	-1223.90137	291.92389	1530.49854	-1243.26587	74.32688	1479.10291	-1284.31213	41.68368	1504.96326	-1099.21362	38.22667																					 
64	0.630	1431.35071	-1062.69812	1633.15576	1563.70422	-1056.18872	1631.91760	1439.86646	-1189.59338	1584.69592	1570.55237	-1178.06482	1583.29468	1493.24402	-1211.38354	1427.01514	1477.12659	-1256.65991	1117.78687	1480.77600	-1091.75708	1347.72986	1462.82092	-1054.01282	1181.39099	1583.77576	-1262.83423	1248.68799	1331.27930	-1145.31641	1395.20642	1249.55396	-1157.73096	1203.91492	1228.46155	-1147.60632	1082.49512	1220.49854	-1099.63416	962.27759	1245.62878	-1053.46045	851.56842	1198.47656	-1083.31921	851.43164	1203.35193	-1047.29736	774.85358	1643.89575	-1126.36694	1363.68970	1708.23926	-1098.92993	1142.05322	1714.14380	-1062.68945	1034.47498	1705.66541	-1019.85846	904.45325	1658.03088	-979.19147	818.38641	1706.73828	-999.47015	807.16437	1689.42236	-963.68756	743.60571	1345.25671	-1111.82471	949.00403	1579.92749	-1096.54602	943.43506	1401.55969	-1269.94617	974.59546	1550.39172	-1257.55518	986.65741	1281.59509	-1114.69995	653.72296	1299.95007	-1062.27136	481.44901	1302.95203	-1156.46008	306.25992	1343.50842	-1230.00391	110.98882	1385.88879	-1275.63135	82.72396	1344.78088	-1096.96179	51.06745	1617.24561	-1172.74231	655.09381	1581.63940	-1171.50732	475.14392	1581.44910	-1222.63647	291.97464	1530.44019	-1243.13635	74.47166	1479.06335	-1284.28186	41.92569	1504.90381	-1099.07483	38.11893																					 
